<svg width="18" height="10" viewBox="0 0 18 10" fill="none" xmlns="http://www.w3.org/2000/svg">
<path d="M1.51763 0.268732C1.43176 0.18289 1.33074 0.115782 1.22035 0.0712373C1.10996 0.0266925 0.992358 0.00558392 0.874255 0.0091181C0.756153 0.0126523 0.639865 0.0407597 0.532031 0.0918347C0.424197 0.14291 0.326929 0.215952 0.24578 0.306792C0.164631 0.397632 0.101191 0.504492 0.059082 0.621268C0.0169728 0.738043 -0.00298116 0.862449 0.000359791 0.987382C0.00370074 1.11232 0.030271 1.23533 0.0785535 1.3494C0.126836 1.46347 0.195885 1.56636 0.281759 1.65221L8.37701 9.73992C8.54401 9.90694 8.76512 10 8.99495 10C9.22477 10 9.44588 9.90694 9.61288 9.73992L17.709 1.65221C17.7968 1.56693 17.8676 1.46406 17.9175 1.34957C17.9674 1.23508 17.9952 1.11125 17.9994 0.985279C18.0037 0.859307 17.9842 0.7337 17.9421 0.615756C17.9001 0.497812 17.8363 0.389881 17.7545 0.298232C17.6727 0.206584 17.5745 0.133044 17.4656 0.0818854C17.3567 0.0307271 17.2392 0.00296996 17.1201 0.000225405C17.001 -0.00251915 16.8825 0.0198037 16.7716 0.065898C16.6607 0.111992 16.5596 0.180938 16.4741 0.268732L8.99495 7.73987L1.51763 0.268732Z" fill="white"/>
</svg>
