<svg width="18" height="10" viewBox="0 0 18 10" fill="none" xmlns="http://www.w3.org/2000/svg">
<path d="M16.4824 9.73127C16.5682 9.81711 16.6693 9.88422 16.7796 9.92876C16.89 9.97331 17.0076 9.99442 17.1257 9.99088C17.2438 9.98735 17.3601 9.95924 17.468 9.90817C17.5758 9.85709 17.6731 9.78405 17.7542 9.69321C17.8354 9.60237 17.8988 9.49551 17.9409 9.37873C17.983 9.26196 18.003 9.13755 17.9996 9.01262C17.9963 8.88768 17.9697 8.76467 17.9214 8.6506C17.8732 8.53653 17.8041 8.43364 17.7182 8.34779L9.62299 0.260084C9.45599 0.0930622 9.23488 0 9.00505 0C8.77523 0 8.55412 0.0930622 8.38712 0.260084L0.290969 8.34779C0.203216 8.43307 0.132353 8.53594 0.0824999 8.65043C0.0326471 8.76492 0.00479755 8.88875 0.000566582 9.01472C-0.00366438 9.14069 0.0158095 9.2663 0.0578557 9.38424C0.0999019 9.50219 0.163682 9.61012 0.245493 9.70177C0.327304 9.79342 0.425515 9.86696 0.534421 9.91811C0.643326 9.96927 0.760755 9.99703 0.879887 9.99977C0.999019 10.0025 1.11748 9.9802 1.22839 9.9341C1.33929 9.88801 1.44044 9.81906 1.52594 9.73127L9.00505 2.26013L16.4824 9.73127Z" fill="white"/>
</svg>
